<svg width="32" height="32" viewBox="0 0 32 32" fill="none" xmlns="http://www.w3.org/2000/svg">
  <rect width="32" height="32" rx="8" fill="url(#gradient)"/>
  <path d="M20 28v-5.33a6.4 6.4 0 0 0-1.33-4.67c4 0 8-2.67 8-7.33.1-1.67-.36-3.31-1.34-4.67.38-1.53.38-3.13 0-4.67 0 0-1.33 0-4 2-3.52-.67-7.14-.67-10.66 0C8 1.33 6.67 1.33 6.67 1.33c-.4 1.54-.4 3.14 0 4.67A7.2 7.2 0 0 0 5.33 10.67c0 4.66 4 7.33 8 7.33-.52.65-.9 1.4-1.13 2.2-.23.8-.23 1.64-.2 2.47V28" stroke="white" stroke-width="2.5" stroke-linecap="round" stroke-linejoin="round" transform="translate(0, 2)"/>
  <defs>
    <linearGradient id="gradient" x1="0" y1="0" x2="32" y2="32" gradientUnits="userSpaceOnUse">
      <stop stop-color="#1b55f5"/>
      <stop offset="1" stop-color="#3377ff"/>
    </linearGradient>
  </defs>
</svg>
